<?xml version="1.0" standalone="no"?><!DOCTYPE svg PUBLIC "-//W3C//DTD SVG 1.1//EN" "http://www.w3.org/Graphics/SVG/1.1/DTD/svg11.dtd"><svg t="1612964967452" class="icon" viewBox="0 0 1024 1024" version="1.1" xmlns="http://www.w3.org/2000/svg" p-id="2138" xmlns:xlink="http://www.w3.org/1999/xlink" width="200" height="200"><defs><style type="text/css"></style></defs><path d="M279.1 875.4c-35.4 0-71.2-23.2-71.2-74.9V536h-72.7c-13.3 0-27.2-7.9-38.2-21.7-4.9-6.1-9.1-17.2-12.9-33.9-3.5-15.4 1.6-31.8 13.3-42.6L490.5 73.2c6-6 14.2-9 24.2-9 11 0 19.7 3 25.8 9 0.8 0.8 8.5 7.9 19.9 18.5 206.7 192 331.4 308.5 370.5 346.3 8.2 8 13 19.1 13.1 30.5 0.2 28.9-2.5 37.4-5.2 41.8-9.2 15.4-24.7 23.9-43.6 23.9h-95.7l-0.9 269.5-0.3 1.1c-0.2 0.8-4.9 19.2-15 34.5-15.6 23.5-37.7 35.9-63.8 35.9H604.6c-16 0-29.1-13.1-29.1-29.1 0.1-64.9 0.2-251.5 0-257.9-0.1-1.3-1.2-4.3-2.2-6H430.6c-0.9 0.8-2.3 2.7-2.3 5.2v258.4c0 16.2-13.2 29.4-29.4 29.4-38.3 0.1-117.9 0.2-119.8 0.2zM514.7 82.2c-5.2 0-9 1.3-11.6 3.9l-0.2 0.2-393.3 364.8c-7 6.5-10 16.2-7.9 25.4 4.2 18.7 7.9 24.8 9.3 26.5 7.4 9.2 16.6 14.9 24.2 14.9h90.7v282.5c0 42 27.5 56.9 53.2 56.9 1.9 0 81.5-0.1 119.8-0.2 6.3 0 11.4-5.1 11.4-11.4V587.4c0-12.9 10.3-23.2 18.8-23.2h146.5c12.2 0 17.7 16.8 17.9 23.5 0.2 7 0.1 200.1 0 258.4 0 6.1 5 11.1 11.1 11.1h114.9c19.8 0 36.7-9.6 48.8-27.9 7.2-10.9 11.3-24.2 12.3-27.9l0.9-285.2h113.7c12.5 0 22.2-5.3 28.2-15.2 0.5-0.9 2.8-6.4 2.6-32.3-0.1-6.6-2.9-13.1-7.7-17.7-39-37.8-163.5-154.2-370.2-346-20-18.6-20-18.6-20.3-18.9-2.5-2.6-6.9-3.9-13.1-3.9z" fill="" p-id="2139"></path><path d="M279.1 877.9c-36.7 0-73.7-23.9-73.7-77.4v-262h-70.2c-14 0-28.7-8.2-40.2-22.6-5.2-6.4-9.5-17.9-13.3-34.9-3.7-16.3 1.7-33.5 14-44.9L488.8 71.4c6.5-6.4 15.2-9.7 25.9-9.7 11.7 0 21 3.3 27.5 9.8 0.8 0.7 7.9 7.4 18.7 17.4l1.1 1c206.7 191.9 331.4 308.5 370.5 346.3 8.7 8.4 13.8 20.2 13.9 32.2 0.2 29.5-2.5 38.1-5.6 43.1-9.7 16.2-25.9 25.1-45.7 25.1H802l-0.9 267.4-0.3 1.4c-0.2 0.8-5 19.6-15.4 35.2-16.1 24.2-38.9 37.1-65.9 37.1H604.6c-17.4 0-31.6-14.2-31.6-31.6 0.1-64.7 0.2-250.3 0-257.8-0.1-0.6-0.6-2.2-1.2-3.6h-140c-0.5 0.7-1 1.6-1 2.7v258.4c0 17.6-14.3 31.9-31.9 31.9-38.4 0.1-117.9 0.2-119.8 0.2zM514.7 66.7c-9.4 0-16.9 2.8-22.5 8.3L99.1 439.7c-11 10.2-15.8 25.6-12.5 40.2 3.6 16.3 7.7 27 12.4 32.8 10.5 13.2 23.8 20.7 36.3 20.7h75.2v267c0 50 34.5 72.4 68.7 72.4 1.9 0 81.4-0.1 119.8-0.2 14.8 0 26.9-12.1 26.9-26.9V587.4c0-3.8 2.4-6.3 3.1-7l0.7-0.7h145.1l0.7 1.2c1.1 1.8 2.4 5.2 2.6 7.1v0.1c0.2 6.5 0.1 193.1 0 258 0 14.7 11.9 26.6 26.6 26.6h114.9c25.2 0 46.6-12 61.7-34.8 9.9-14.9 14.5-32.9 14.7-33.7l0.2-0.8 0.9-271.7h98.2c18 0 32.7-8.1 41.4-22.7 2.4-3.9 5.1-12 4.9-40.5-0.1-10.7-4.6-21.2-12.4-28.7C890 402 765.4 285.5 558.7 93.6l-1.1-1c-10.8-10.1-18-16.7-18.8-17.5-5.7-5.6-13.7-8.4-24.1-8.4zM279.1 859.9c-26.9 0-55.7-15.6-55.7-59.4v-280h-88.2c-8.3 0-18.3-6.1-26.1-15.9-1.9-2.4-5.7-9.1-9.8-27.6-2.3-10.1 1.1-20.7 8.7-27.8L501.1 84.5l0.2-0.2c3.1-3.1 7.4-4.6 13.4-4.6 6.8 0 11.9 1.5 14.9 4.6 0.2 0.2 1 0.9 20.2 18.8C756.5 295 881.1 411.4 920.1 449.2c5.3 5.1 8.3 12.2 8.4 19.5 0.2 25.2-2 31.9-2.9 33.6-6.5 10.8-17 16.5-30.4 16.5H784l-0.9 283-0.1 0.3c-1.1 3.9-5.3 17.5-12.6 28.6-12.6 19-30.2 29-50.9 29H604.6c-7.5 0-13.6-6.1-13.6-13.6 0.1-58.3 0.2-251.3 0-258.4-0.1-5.8-5.1-21.1-15.4-21.1H429.1c-7.3 0-16.3 9.6-16.3 20.7v258.4c0 7.7-6.2 13.9-13.9 13.9-38.5 0.2-117.9 0.3-119.8 0.3zM514.7 84.7c-4.5 0-7.8 1-9.9 3.1l-0.3 0.3-393.2 364.8c-6.3 5.9-9.1 14.7-7.2 23 4.2 18.7 7.8 24.3 8.8 25.5 6.9 8.6 15.4 14 22.2 14h93.2v285c0 40.1 26.2 54.4 50.7 54.4 1.9 0 81.3-0.1 119.8-0.2 4.9 0 8.9-4 8.9-8.9V587.4c0-14.5 11.5-25.7 21.3-25.7h146.5c14.1 0 20.2 18.3 20.4 25.9 0.2 7.1 0.1 200.2 0 258.5 0 4.7 3.9 8.6 8.6 8.6h114.9c18.9 0 35.1-9.3 46.7-26.8 6.8-10.2 10.7-22.8 11.9-26.9l0.9-287.3h116.2c11.5 0 20.5-4.8 26-14 0.1-0.1 2.5-4.8 2.3-31-0.1-5.9-2.6-11.7-6.9-15.9-39-37.7-163.5-154.2-370.2-346-20.1-18.6-20.1-18.6-20.4-18.9-1.9-2.1-5.8-3.2-11.2-3.2z" fill="" p-id="2140"></path><path d="M279.1 878.9c-37.2 0-74.7-24.2-74.7-78.4v-261h-69.2c-14.3 0-29.3-8.4-41-23-5.3-6.6-9.7-18.1-13.5-35.3-3.8-16.7 1.7-34.3 14.3-45.9L488 70.7c6.7-6.6 15.7-10 26.7-10 12 0 21.5 3.4 28.2 10.1 0.7 0.7 7.9 7.3 18.7 17.4l1.1 1c206.7 191.9 331.4 308.5 370.5 346.3 8.9 8.6 14.1 20.6 14.2 32.9 0.2 29.7-2.6 38.6-5.7 43.6-9.9 16.5-26.4 25.6-46.6 25.6H803l-0.9 266.5-0.4 1.5c-0.2 0.8-5.1 19.8-15.5 35.6-16.3 24.5-39.4 37.5-66.7 37.5H604.6c-18 0-32.6-14.6-32.6-32.6 0.1-64.6 0.2-249.6 0-257.7-0.1-0.4-0.4-1.6-0.9-2.7H432.3c-0.3 0.5-0.5 1.1-0.5 1.7v258.4c0 18.1-14.8 32.9-32.9 32.9-38.4 0.1-117.9 0.2-119.8 0.2zM514.7 67.7c-9.1 0-16.4 2.7-21.8 8l-0.1 0.1-393 364.7c-10.8 10-15.5 25-12.2 39.2 3.6 16.1 7.6 26.7 12.2 32.4 10.4 12.9 23.3 20.4 35.5 20.4h76.2v268c0 49.3 34 71.4 67.7 71.4 1.9 0 81.4-0.1 119.8-0.2 14.3 0 25.9-11.6 25.9-25.9V587.4c0-4.2 2.6-7 3.4-7.7l1-1h146l1 1.7c1.2 2 2.6 5.5 2.7 7.5v0.1c0.2 6.5 0.1 193.1 0 258 0 14.1 11.5 25.6 25.6 25.6h114.9c24.9 0 45.9-11.9 60.9-34.4 9.8-14.8 14.4-32.6 14.5-33.4l0.2-0.7 0.9-272.6h99.2c17.6 0 32-7.9 40.6-22.2 2.3-3.8 4.9-11.8 4.7-40-0.1-10.5-4.5-20.7-12.1-28-39.1-37.6-163.7-154.1-370.4-346l-1.1-1c-10.8-10.1-18-16.7-18.8-17.5-5.5-5.4-13.3-8.1-23.4-8.1zM279.1 860.9c-15 0-28.7-4.8-38.6-13.6-11.9-10.6-18.1-26.7-18.1-46.8v-279h-87.2c-8.7 0-18.8-6.1-26.9-16.3-2-2.4-5.9-9.3-10-28-2.4-10.4 1.1-21.4 9-28.8L500.4 83.7l0.2-0.2c3.2-3.2 7.9-4.8 14.1-4.8 7.1 0 12.4 1.6 15.6 4.9 0.2 0.2 1.5 1.4 20.2 18.8 206.7 191.9 331.2 308.3 370.2 346.1 5.5 5.3 8.6 12.7 8.7 20.2 0.1 18.2-1 30.3-3.1 34.1-6.7 11.2-17.5 17-31.2 17H785l-0.9 282.2-0.1 0.5c-1.1 3.9-5.3 17.7-12.7 28.9-12.8 19.3-30.7 29.5-51.7 29.5h-115c-8 0-14.6-6.5-14.6-14.6 0.1-58.3 0.2-251.3 0-258.3-0.1-6-5.2-20.1-14.4-20.1H429.1c-6.2 0-15.3 8.3-15.3 19.7V846c0 8.2-6.7 14.9-14.9 14.9-38.5-0.1-117.9 0-119.8 0zM514.7 85.7c-4.3 0-7.3 0.9-9.2 2.8l-0.3 0.3L112 453.7c-6.1 5.6-8.7 14.1-6.9 22.1 4.1 18.4 7.7 23.9 8.7 25.1 6.6 8.3 15 13.6 21.5 13.6h94.2v286c0 39.4 25.7 53.4 49.7 53.4 1.9 0 81.3-0.1 119.8-0.2 4.4 0 7.9-3.5 7.9-7.9V587.4c0-15 12-26.7 22.3-26.7h146.5c14.8 0 21.2 19 21.4 26.9 0.2 7.1 0.1 200.2 0 258.5 0 4.2 3.4 7.6 7.6 7.6h114.9c18.6 0 34.4-9.1 45.9-26.3 6.6-10 10.5-22.3 11.7-26.5l0.9-288.2h117.2c11.1 0 19.8-4.6 25.1-13.4 0.2-0.4 2.4-5.7 2.2-30.6-0.1-5.7-2.5-11.2-6.6-15.2-39-37.7-163.5-154.1-370.1-346-20.1-18.6-20.1-18.6-20.4-19-2-1.8-5.7-2.8-10.8-2.8z" fill="" p-id="2141"></path><path d="M279.1 881.4c-38.4 0-77.2-25-77.2-80.9V542h-66.7c-15.1 0-30.7-8.7-42.9-23.9-5.5-6.9-10.1-18.7-14-36.3-4-17.5 1.8-36 15.1-48.3l393-364.6c7.2-7 16.7-10.6 28.4-10.6 12.7 0 22.8 3.6 30 10.8 0.7 0.6 7 6.5 16.6 15.5l3.1 2.9C771.2 279.3 895.9 395.8 935 433.7c9.4 9.1 14.8 21.7 15 34.7 0.2 30.4-2.8 39.6-6.1 45-10.3 17.3-27.6 26.8-48.7 26.8h-89.7l-0.9 264.3-0.4 1.8c-0.2 0.8-5.2 20.2-15.8 36.3-16.8 25.3-40.6 38.6-68.8 38.6h-115c-19.4 0-35.1-15.7-35.1-35.1 0.1-63.5 0.2-247.1 0-257.5 0-0.1-0.1-0.2-0.1-0.4H434.3v257.6c0 19.5-15.9 35.4-35.4 35.4-38.6 0.1-117.9 0.2-119.8 0.2zM514.7 63.2c-10.3 0-18.7 3.1-24.9 9.3L96.7 437.2c-11.9 11-17.1 27.7-13.6 43.5 3.8 16.8 8 28 13 34.3 11.2 14 25.4 22.1 39 22.1h71.7v263.5c0 52.4 36.3 75.9 72.2 75.9 1.9 0 81.2-0.1 119.8-0.2 16.8 0 30.4-13.6 30.4-30.4V587.4c0-1 0.3-2 0.8-2.9l0.7-1.3h141.9l0.6 1.5c0.4 1 0.9 2.5 1.1 3.3v0.3c0.2 8.1 0.1 193.8 0 257.8 0 16.6 13.5 30.1 30.1 30.1h114.9c26.5 0 48.8-12.6 64.6-36.4 10.2-15.4 15-34 15.2-34.8l0.3-1.2 0.9-268.7H895c19.2 0 35-8.7 44.4-24.4 2.8-4.6 5.6-13.2 5.4-42.3-0.1-11.6-5-23-13.4-31.2-39-37.7-163.6-154.3-370.3-346.2l-3.1-2.9c-9.7-9-16-14.9-16.7-15.5-6.4-6.3-15.3-9.4-26.6-9.4zM279.1 874.4c-34.9 0-70.2-22.9-70.2-73.9V535h-73.7c-13 0-26.6-7.8-37.5-21.3-4.8-6-9-17-12.7-33.5-3.4-15.1 1.6-31.1 13-41.6L491.1 73.9c5.8-5.8 13.7-8.7 23.5-8.7 10.8 0 19.2 3 25.1 8.8 0.7 0.7 7.1 6.6 16.8 15.6l3.1 2.9C766.3 284.4 891 400.9 930.1 438.8c8 7.8 12.7 18.6 12.8 29.7 0.2 28.7-2.4 37-5.1 41.3-9 15.1-24.2 23.4-42.7 23.4h-96.7l-0.9 270.4-0.2 0.9c-0.2 0.8-4.9 19.1-14.9 34.2-15.4 23.2-37.2 35.5-63 35.5H604.6c-15.5 0-28.1-12.6-28.1-28.1 0.1-64.9 0.2-251.5 0-258v-0.1c-0.1-1.4-1.2-4.5-2.4-6.4l-0.3-0.5H430.2l-0.3 0.3c-0.6 0.6-2.6 2.7-2.6 5.9v258.4c0 15.7-12.7 28.4-28.4 28.4-38.6 0.2-117.9 0.3-119.8 0.3zM514.7 70.2c-8.4 0-15.1 2.4-20 7.3l-0.1 0.1-393.1 364.7C91.4 451.7 87 465.8 90 479.1c3.5 15.7 7.3 26 11.7 31.4 9.9 12.4 22.1 19.4 33.6 19.4H214v270.5c0 47.6 32.7 68.9 65.2 68.9 1.9 0 81.2-0.1 119.8-0.2 12.9 0 23.4-10.5 23.4-23.4V587.4c0-5.2 3.2-8.6 4.2-9.6l1.7-1.6h148.4l1.8 2.9c1.4 2.2 2.9 6.1 3.1 8.7v0.2c0.2 6.5 0.1 193.2 0 258.2 0 12.7 10.4 23.1 23.1 23.1h114.9c24 0 44.3-11.5 58.8-33.3 9.5-14.4 14-31.9 14.2-32.6l0.1-0.3 0.9-274.8h101.7c16.7 0 30.3-7.5 38.4-21 2-3.2 4.6-10.8 4.4-38.7-0.1-9.8-4.2-19.3-11.3-26.2C887.6 404.5 763 288 556.3 96.1l-3.1-2.9c-9.7-9-16-14.9-16.8-15.6-5-4.9-12.3-7.4-21.7-7.4zM279.1 863.4c-15.6 0-29.9-5.1-40.2-14.2-12.4-11-19-27.9-19-48.7V524h-84.7c-9.5 0-20.3-6.4-28.9-17.2-2.5-3.2-6.4-10.8-10.5-29-2.6-11.3 1.2-23.2 9.7-31.1L498.7 81.9l0.2-0.2c3.7-3.7 8.9-5.5 15.8-5.5 7.8 0 13.6 1.9 17.4 5.6 0.2 0.2 2.8 2.7 20.1 18.7 206.7 191.9 331.2 308.3 370.3 346.1 5.9 5.8 9.4 13.8 9.5 22 0.1 19.2-1 31-3.4 35.3-7.2 12-18.7 18.3-33.4 18.3H787.5l-0.9 280-0.2 0.8c-1.1 4-5.4 18.1-13.1 29.6-13.3 20-31.9 30.6-53.8 30.6H604.6c-9.4 0-17.1-7.7-17.1-17.1 0.1-58.3 0.2-251.2 0-258.2-0.1-5.4-4.8-17.7-11.9-17.7H429.1c-4.4 0-12.8 6.7-12.8 17.2v258.4c0 9.6-7.8 17.4-17.4 17.4-38.6 0.1-117.9 0.2-119.8 0.2zM514.7 81.2c-5.5 0-9.5 1.3-12.3 4.1l-0.2 0.2-393.3 364.9c-7.2 6.7-10.4 16.8-8.2 26.4 4.2 18.9 8.1 25.1 9.5 27 7.7 9.6 17 15.3 25 15.3h89.7v281.5c0 19.3 6 34.9 17.3 44.9 9.4 8.4 22.5 13 36.9 13 1.9 0 81.2-0.1 119.8-0.2 6.9 0 12.4-5.6 12.4-12.4V587.4c0-12.3 9.7-22.2 17.8-22.2h146.5c10.6 0 16.7 14.9 16.9 22.5 0.2 7 0.1 200.1 0 258.4 0 6.7 5.4 12.1 12.1 12.1h114.9c20.1 0 37.3-9.8 49.6-28.3 7.2-10.9 11.3-24.4 12.4-28.2v-0.1l0.9-284.3h112.7c12.8 0 22.9-5.5 29.1-15.8 0.7-1.2 2.9-7.2 2.7-32.8-0.1-6.9-3-13.6-8-18.4-39-37.8-163.6-154.2-370.2-346-20-18.6-20-18.6-20.3-18.8-2.6-2.9-7.3-4.3-13.7-4.3zM279.1 856.4c-25.2 0-52.2-14.7-52.2-55.9V517h-91.7c-7.2 0-16.2-5.6-23.4-14.6-1.4-1.7-5-7.7-9.1-26.1-2-8.9 0.9-18.2 7.7-24.5L503.5 87l0.3-0.2c2.4-2.4 5.9-3.5 10.9-3.5 5.9 0 10.1 1.2 12.4 3.6 0.3 0.3 1 1 20.3 18.9C754 297.6 878.6 414 917.6 451.8c4.6 4.5 7.3 10.7 7.4 17 0.2 24.1-1.8 30.3-2.4 31.6l-0.1 0.2c-5.8 9.6-15.2 14.6-27.3 14.6H780.5l-0.9 286.1-0.1 0.3c-1.4 4.8-5.3 17-12 27.2-11.9 18-28.5 27.4-48 27.4H604.6c-5.6 0-10.1-4.5-10.1-10.1 0.1-58.3 0.2-251.4 0-258.4-0.2-7-6-24.5-18.9-24.5H429.1c-9 0-19.8 10.8-19.8 24.2v258.4c0 5.7-4.7 10.4-10.4 10.4-38.6 0.1-117.9 0.2-119.8 0.2zM514.7 88.2c-3.6 0-6 0.7-7.4 2.1l-0.3 0.3-393.3 364.9c-5.4 5-7.8 12.6-6.2 19.7 4.1 18.4 7.5 23.3 8.2 24.1 6.1 7.6 13.9 12.7 19.5 12.7h96.7v288.5c0 37.5 24.4 50.9 47.2 50.9 1.9 0 81.1-0.1 119.8-0.2 3 0 5.4-2.4 5.4-5.4V587.4c0-16.4 13.3-29.2 24.8-29.2h146.5c16.2 0 23.7 19.4 23.9 29.3 0.2 7.1 0.1 200.2 0 258.6 0 2.8 2.3 5.1 5.1 5.1h114.9c17.7 0 32.8-8.7 43.8-25.2 6.3-9.6 10.1-21.5 11.3-25.5l0.9-290.3h119.7c10.1 0 18.1-4.2 22.9-12.1 0.3-0.8 2.1-6.6 1.9-29.4-0.1-5-2.2-9.9-5.8-13.4-39-37.8-163.5-154.1-370.1-345.9-20.1-18.7-20.1-18.7-20.5-19-0.6-0.7-2.8-2.2-8.9-2.2z" fill="" p-id="2142"></path></svg>