<?xml version="1.0" standalone="no"?><!DOCTYPE svg PUBLIC "-//W3C//DTD SVG 1.1//EN" "http://www.w3.org/Graphics/SVG/1.1/DTD/svg11.dtd"><svg t="1613096418281" class="icon" viewBox="0 0 1024 1024" version="1.1" xmlns="http://www.w3.org/2000/svg" p-id="2114" xmlns:xlink="http://www.w3.org/1999/xlink" width="200" height="200"><defs><style type="text/css"></style></defs><path d="M628.659465 272.3949c4.552689 4.552689 7.407714 11.401678 7.407714 18.229177 0 3.414773-0.559748 6.829546-1.697665 10.263761-1.157359 2.834558-3.433192 5.690606-5.710049 7.966439L444.257641 511.699148l184.401824 203.402573c2.276856 2.276856 4.552689 5.131881 5.710049 7.987928 1.137916 2.835581 1.697665 6.268774 1.697665 9.683547 0 7.40669-2.855024 13.676487-7.407714 18.2302l0 0c-4.551666 4.552689-10.803044 7.966439-18.210757 7.966439-3.412726 0-6.828522-1.137916-9.66308-2.276856-3.415796-1.136893-6.27082-2.835581-8.547677-5.690606l0 0L391.324058 529.929348c-2.276856-2.276856-3.984754-5.132904-5.691629-7.966439-1.137916-3.433192-1.706875-6.848988-1.706875-10.262738 0-3.433192 0.568958-6.830569 1.706875-9.68457 1.706875-3.433192 3.414773-5.709025 5.691629-8.565073l200.913892-221.055628 0 0c2.276856-2.295276 5.131881-3.992941 8.547677-5.691629 2.835581-1.157359 6.250354-1.717108 9.66308-1.717108l0 0C617.856421 264.986163 624.107799 267.822768 628.659465 272.3949L628.659465 272.3949z" p-id="2115"></path></svg>