<?xml version="1.0" standalone="no"?><!DOCTYPE svg PUBLIC "-//W3C//DTD SVG 1.1//EN" "http://www.w3.org/Graphics/SVG/1.1/DTD/svg11.dtd"><svg t="1612800025987" class="icon" viewBox="0 0 1024 1024" version="1.1" xmlns="http://www.w3.org/2000/svg" p-id="1171" xmlns:xlink="http://www.w3.org/1999/xlink" width="200" height="200"><defs><style type="text/css"></style></defs><path d="M814 122.8l-264.6 12.7c-35.1 1.7-68.3 16.4-93.1 41.2L107.7 525.3c-31.1 31.1-31.1 81.6 0 112.7l277.2 277.2c31.1 31.1 81.6 31.1 112.7 0l14.3-14.3 92.1-92.1 242.2-242.2c24.8-24.8 39.5-58 41.2-93.1l12.7-264.6c2.3-48.5-37.6-88.4-86.1-86.1zM689.6 470c-37.8 37.8-99 37.8-136.8 0s-37.8-99 0-136.8c37.8-37.8 99-37.8 136.8 0 37.8 37.8 37.8 99.1 0 136.8z" p-id="1172"></path></svg>